:FULLY-SPECIFIED
:FORCE-ALL-JOINTS-BE-3DOF
:DEGREES
485
root 10.8785 17.2849 31.6207 4.36639 4.13941 4.44841
lfemur 10.5783 2.56995 -29.3398
ltibia 2.05776 -0 0
lfoot -14.7955 4.45142 0.00124795
ltoes 2.676 -0 0
rfemur -40.2242 9.08819 10.2689
rtibia 29.7555 -0 0
rfoot -22.3006 -6.98479 -0.0056761
rtoes -16.274 0 0
lowerback -6.58894 -4.63261 -4.90111
upperback 1.01097 -5.84959 1.48068
thorax 5.39618 -3.06481 3.60081
lowerneck -23.0201 -2.37858 -9.55061
upperneck 24.4426 -2.78206 9.94134
head 12.1583 -0.831566 4.93107
lclavicle 2.92876e-14 -5.30087e-16 0
lhumerus -8.55299 -22.28 83.8289
lradius 32.975 -0 0
lwrist 7.73927 0 0
lhand -18.3083 -25.9538 0.00139524
lfingers 7.12502 0 0
lthumb 7.97291 3.87828 0.00174654
rclavicle 2.92876e-14 -5.30087e-16 0
rhumerus -47.8518 8.77616 -85.6384
rradius 38.0562 -0 0
rwrist -19.932 0 0
rhand -31.6182 -23.3533 0.00436242
rfingers 7.12502 0 0
rthumb -4.88007 -53.2777 0.00424221
486
root 10.8734 17.2717 31.7635 4.38919 4.1764 4.66969
lfemur 11.7442 2.50539 -29.5029
ltibia 0.867548 -0 0
lfoot -14.6286 4.55456 0.000615977
ltoes 2.24172 -0 0
rfemur -40.7028 9.86945 9.56216
rtibia 29.2498 -0 0
rfoot -22.9866 -7.02941 -0.00443286
rtoes -16.8877 0 0
lowerback -6.57355 -4.6788 -5.0868
upperback 0.947235 -5.89358 1.40976
thorax 5.33721 -3.08832 3.62807
lowerneck -22.8592 -2.37841 -9.57136
upperneck 24.413 -2.79547 9.96855
head 12.1173 -0.839376 4.93977
lclavicle 3.9318e-14 -4.63831e-15 0
lhumerus -8.94397 -22.5375 84.0378
lradius 33.3249 -0 0
lwrist 7.62718 0 0
lhand -18.3219 -26.1119 0.00068774
lfingers 7.12502 0 0
lthumb 7.9597 3.72008 0.000960043
rclavicle 3.9318e-14 -4.63831e-15 0
rhumerus -48.0989 8.62008 -85.5891
rradius 37.7697 -0 0
rwrist -19.8524 0 0
rhand -31.3455 -23.376 0.00138273
rfingers 7.12502 0 0
rthumb -4.61674 -53.3061 0.00135445
487
root 10.8684 17.2584 31.9063 4.42251 4.23293 4.84871
lfemur 12.734 2.42356 -29.6038
ltibia 2.8625e-14 0 0
lfoot -14.5736 4.62157 0
ltoes 1.97923 0 0
rfemur -41.1324 10.5816 8.94555
rtibia 28.7835 0 0
rfoot -23.7293 -7.11235 0
rtoes -16.4619 0 0
lowerback -6.53922 -4.73521 -5.23995
upperback 0.866424 -5.95593 1.34709
thorax 5.24925 -3.11898 3.64664
lowerneck -22.7455 -2.37613 -9.59661
upperneck 24.4371 -2.81651 10.0396
head 12.1086 -0.844895 4.96853
lclavicle 4.93483e-14 -8.74653e-15 0
lhumerus -9.38194 -22.7914 84.2462
lradius 33.6506 0 0
lwrist 7.50649 0 0
lhand -18.175 -26.2233 0
lfingers 7.12502 0 0
lthumb 8.1014 3.60143 0
rclavicle 4.93483e-14 -8.74653e-15 0
rhumerus -48.3732 8.46943 -85.559
rradius 37.504 0 0
rwrist -19.7468 0 0
rhand -31.0738 -23.3489 0
rfingers 7.12502 0 0
rthumb -4.35441 -53.2841 0
488
root 10.8519 17.2362 32.0565 4.4621 4.32896 4.98625
lfemur 13.5148 2.30176 -29.64
ltibia 2.43843e-14 0 0
lfoot -14.6666 4.64967 -0.000315778
ltoes 1.98383 -0 0
rfemur -41.5202 11.305 8.36788
rtibia 28.3741 -0 0
rfoot -24.681 -7.21414 0.00829701
rtoes -14.2949 0 0
lowerback -6.44526 -4.80843 -5.35566
upperback 0.739384 -6.04821 1.28555
thorax 5.07865 -3.16056 3.6501
lowerneck -22.6644 -2.37065 -9.63272
upperneck 24.5527 -2.85189 10.1764
head 12.1456 -0.849623 5.02767
lclavicle 4.5501e-14 -3.57813e-15 0
lhumerus -9.93009 -23.0516 84.4628
lradius 33.9646 -0 0
lwrist 7.35834 0 0
lhand -17.7453 -26.2739 -0.000332843
lfingers 7.12502 0 0
lthumb 8.51594 3.53097 -0.000882951
rclavicle 4.5501e-14 -3.57813e-15 0
rhumerus -48.7324 8.33112 -85.5729
rradius 37.2722 -0 0
rwrist -19.6175 0 0
rhand -30.7538 -23.3191 -0.000471667
rfingers 7.12502 0 0
rthumb -4.04536 -53.2596 -0.000499968
489
root 10.8353 17.214 32.2066 4.50321 4.46669 5.09942
lfemur 14.1267 2.13458 -29.6345
ltibia 2.01435e-14 0 0
lfoot -14.8875 4.65171 -0.000323357
ltoes 2.21157 -0 0
rfemur -41.8852 12.0845 7.77801
rtibia 28.0443 -0 0
rfoot -25.8786 -7.33588 0.0181223
rtoes -10.5899 0 0
lowerback -6.28015 -4.89669 -5.44608
upperback 0.558634 -6.16762 1.21914
thorax 4.81131 -3.21158 3.6402
lowerneck -22.5874 -2.36449 -9.68283
upperneck 24.7509 -2.9044 10.3713
head 12.2193 -0.856482 5.1136
lclavicle 4.16537e-14 1.59028e-15 0
lhumerus -10.6158 -23.3254 84.7035
lradius 34.2762 -0 0
lwrist 7.17094 0 0
lhand -17.043 -26.2792 -0.000380524
lfingers 7.12502 0 0
lthumb 9.19351 3.49353 -0.00148275
rclavicle 4.16537e-14 1.59028e-15 0
rhumerus -49.188 8.20107 -85.6302
rradius 37.0609 -0 0
rwrist -19.472 0 0
rhand -30.3515 -23.3484 -0.000785662
rfingers 7.12502 0 0
rthumb -3.65685 -53.2951 -0.000849972
490
root 10.8188 17.1918 32.3568 4.54998 4.62173 5.19163
lfemur 14.6207 1.94623 -29.5964
ltibia 1.59028e-14 0 0
lfoot -15.1857 4.63438 -0.000178776
ltoes 2.5323 -0 0
rfemur -42.2187 12.8337 7.23046
rtibia 27.7779 -0 0
rfoot -27.1409 -7.50226 0.0256788
rtoes -6.2749 0 0
lowerback -6.09187 -4.99127 -5.5205
upperback 0.358758 -6.29904 1.15544
thorax 4.51076 -3.26698 3.62554
lowerneck -22.5258 -2.35965 -9.73977
upperneck 24.9818 -2.96678 10.5951
head 12.3109 -0.864407 5.21252
lclavicle 3.78063e-14 6.75868e-15 0
lhumerus -11.3675 -23.6012 84.962
lradius 34.5721 -0 0
lwrist 6.96489 0 0
lhand -16.2234 -26.2609 -0.000606545
lfingers 7.12502 0 0
lthumb 9.98423 3.47454 -0.00184503
rclavicle 3.78063e-14 6.75868e-15 0
rhumerus -49.6705 8.06933 -85.6996
rradius 36.8503 -0 0
rwrist -19.3093 0 0
rhand -29.9202 -23.3931 -0.000465259
rfingers 7.12502 0 0
rthumb -3.24036 -53.3461 -0.000560066
491
root 10.8023 17.1696 32.5069 4.60649 4.76967 5.26624
lfemur 15.0479 1.76126 -29.534
ltibia 1.1662e-14 0 0
lfoot -15.5107 4.60437 -4.83811e-05
ltoes 2.8159 -0 0
rfemur -42.5086 13.4669 6.7817
rtibia 27.5589 -0 0
rfoot -28.2868 -7.73775 0.0269508
rtoes -2.27784 0 0
lowerback -5.92843 -5.08354 -5.58804
upperback 0.1743 -6.42723 1.10185
thorax 4.24053 -3.32162 3.61455
lowerneck -22.4909 -2.35818 -9.7964
upperneck 25.1957 -3.03126 10.8184
head 12.4013 -0.87225 5.31062
lclavicle 3.3959e-14 1.19271e-14 0
lhumerus -12.113 -23.8682 85.2313
lradius 34.839 -0 0
lwrist 6.76079 0 0
lhand -15.4419 -26.2405 -0.00106899
lfingers 7.12502 0 0
lthumb 10.7382 3.45942 -0.00193695
rclavicle 3.3959e-14 1.19271e-14 0
rhumerus -50.1105 7.92652 -85.75
rradius 36.6207 -0 0
rwrist -19.1286 0 0
rhand -29.5132 -23.4095 0.000326082
rfingers 7.12502 0 0
rthumb -2.84735 -53.3685 0.000221601
492
root 10.7857 17.1474 32.657 4.67674 4.88609 5.32661
lfemur 15.4595 1.60435 -29.4559
ltibia 7.42129e-15 0 0
lfoot -15.8122 4.56836 -7.83061e-06
ltoes 2.93224 -0 0
rfemur -42.7404 13.8992 6.48974
rtibia 27.3711 -0 0
rfoot -29.1353 -8.06674 0.0186612
rtoes 0.473282 -0 0
lowerback -5.83785 -5.16497 -5.65758
upperback 0.0397703 -6.53681 1.06547
thorax 4.06414 -3.37026 3.61548
lowerneck -22.494 -2.36216 -9.84556
upperneck 25.3432 -3.08949 11.0123
head 12.4717 -0.878759 5.39411
lclavicle 3.01117e-14 1.70955e-14 0
lhumerus -12.7794 -24.1162 85.503
lradius 35.0637 -0 0
lwrist 6.57926 0 0
lhand -14.8538 -26.2396 -0.00117146
lfingers 7.12502 0 0
lthumb 11.3057 3.43361 -0.00145267
rclavicle 3.01117e-14 1.70955e-14 0
rhumerus -50.4387 7.76386 -85.7507
rradius 36.352 -0 0
rwrist -18.9288 0 0
rhand -29.1839 -23.354 0.000805875
rfingers 7.12502 0 0
rthumb -2.52931 -53.3178 0.000729525
493
root 10.7692 17.1252 32.8072 4.76472 4.94658 5.37601
lfemur 15.9068 1.5002 -29.3704
ltibia 3.18055e-15 0 0
lfoot -16.0397 4.53304 0
ltoes 2.7512 0 0
rfemur -42.8989 14.0455 6.41316
rtibia 27.1984 0 0
rfoot -29.5052 -8.51367 0
rtoes 1.05049 0 0
lowerback -5.86816 -5.22708 -5.73792
upperback -0.0103376 -6.61241 1.05328
thorax 4.04511 -3.40765 3.63648
lowerneck -22.5464 -2.37369 -9.88009
upperneck 25.3748 -3.1327 11.1477
head 12.5032 -0.882602 5.4492
lclavicle 2.62644e-14 2.22639e-14 0
lhumerus -13.2933 -24.3359 85.7679
lradius 35.2327 0 0
lwrist 6.44089 0 0
lhand -14.6144 -26.2799 0
lfingers 7.12502 0 0
lthumb 11.5366 3.38255 0
rclavicle 2.62644e-14 2.22639e-14 0
rhumerus -50.5862 7.57269 -85.6711
rradius 36.0246 0 0
rwrist -18.709 0 0
rhand -28.9855 -23.1828 0
rfingers 7.12502 0 0
rthumb -2.3377 -53.1497 0
494
root 10.75 17.0957 32.9664 4.87925 4.93149 5.41563
lfemur 16.3673 1.46551 -29.2803
ltibia -6.36111e-15 0 0
lfoot -16.2162 4.49081 0.000109278
ltoes 2.2453 -0 0
rfemur -42.9557 13.841 6.60005
rtibia 26.9992 -0 0
rfoot -29.2453 -9.16856 -0.0273481
rtoes -1.22714 0 0
lowerback -6.06751 -5.26885 -5.84333
upperback 0.0572573 -6.64793 1.07131
thorax 4.24755 -3.43338 3.6865
lowerneck -22.6767 -2.39523 -9.89294
upperneck 25.2599 -3.15888 11.2166
head 12.489 -0.882507 5.47048
lclavicle 1.81432e-14 2.0011e-14 0
lhumerus -13.5874 -24.5312 86.0041
lradius 35.3423 -0 0
lwrist 6.32522 0 0
lhand -14.8761 -26.3795 0.00290718
lfingers 7.12502 0 0
lthumb 11.2842 3.29522 0.00253772
rclavicle 1.81432e-14 2.0011e-14 0
rhumerus -50.488 7.35263 -85.4966
rradius 35.6324 -0 0
rwrist -18.4689 0 0
rhand -28.9655 -22.7698 -0.00225815
rfingers 7.12502 0 0
rthumb -2.31841 -52.7374 -0.00215476
